<?xml version="1.0" encoding="utf-8"?>
<svg version="1.1" xmlns="http://www.w3.org/2000/svg" viewBox="0 0 350 350" style="enable-background:new 0 0 350 350;" xml:space="preserve">
<g>
  <!-- Speech bubble -->
  <path d="M285,30H65C42.4,30,24,48.4,24,71v130c0,22.6,18.4,41,41,41h18v60l65-60h137c22.6,0,41-18.4,41-41V71
    C326,48.4,307.6,30,285,30z M298,201c0,7.2-5.8,13-13,13H144l-43,39.6V214H65c-7.2,0-13-5.8-13-13V71c0-7.2,5.8-13,13-13h220
    c7.2,0,13,5.8,13,13V201z"/>
  <!-- Left-pointing arrow (return) inside bubble -->
  <path d="M108,136l52-52v31h82c11,0,20,9,20,20s-9,20-20,20H160v31L108,136z"/>
</g>
</svg>
