<?xml version="1.0" encoding="utf-8"?>
<!-- Generator: Adobe Illustrator 24.0.1, SVG Export Plug-In . SVG Version: 6.00 Build 0)  -->
<svg version="1.1" id="Layer_1" xmlns="http://www.w3.org/2000/svg" xmlns:xlink="http://www.w3.org/1999/xlink" x="0px" y="0px"
	 viewBox="0 0 350 350" style="enable-background:new 0 0 350 350;" xml:space="preserve">
<g id="fGgNDp.tif">
	<g>
		<path d="M174.9,325c-15.8,0-31.6-0.1-47.4,0c-8.8,0.1-16.5-2.6-22.9-8.6c-4.5-4.2-8.8-8.6-13.1-12.9c-16.4-16.4-32.7-32.8-49-49.1
			c-3.1-3.1-6.2-6.2-9.1-9.4c-5.7-6.2-8.1-13.8-8.1-22.1c-0.1-32,0-64.1,0-96.1c0-9.4,3.5-17.4,10.1-24.1
			c19.4-19.4,38.7-38.8,58.1-58.2c4.5-4.5,9-9.1,13.9-13.2c4.3-3.5,9.4-5.6,15-5.9c3.1-0.2,6.2-0.4,9.3-0.4c30,0,59.9-0.1,89.9,0
			c3.7,0,7.6,0.4,11.1,1.4c4.3,1.2,8.4,3.2,11.7,6.4c5.3,5.1,10.5,10.2,15.7,15.4c18.1,18.1,36.2,36.3,54.4,54.4
			c4.1,4,7.1,8.7,8.6,14.2c1,3.4,1.5,7.1,1.5,10.7c0.1,31.7,0.1,63.4,0.1,95c0,9.8-3.5,18.1-10.4,25c-18.3,18.4-36.7,36.8-55.1,55.1
			c-4.9,4.9-9.6,9.8-14.7,14.4c-5.9,5.3-13.1,7.9-21.1,7.9C207.3,325,191.1,325,174.9,325z M175.1,47.1c-15.3,0-30.7-0.1-46,0
			c-4.4,0-8.3,1.6-11.5,4.8c-7.1,7.1-14.3,14.3-21.4,21.5c-14.3,14.4-28.7,28.7-43,43.1c-3.7,3.7-5.8,8-5.8,13.3c0,30,0,60,0,90
			c0,5.3,1.8,9.8,5.6,13.6c21.2,21.2,42.4,42.4,63.5,63.7c4,4,8.7,5.9,14.2,5.9c29.5,0,58.9,0,88.4,0c5.6,0,10.4-2,14.4-5.9
			c20.7-20.7,41.3-41.5,62.1-62.1c4.8-4.8,7.1-10.3,7-17.1c-0.2-17.3-0.1-34.6-0.1-51.8c0-11.8,0-23.7,0-35.5c0-5.4-1.8-10-5.7-13.8
			c-1.6-1.6-3.1-3.1-4.7-4.7c-19.8-19.8-39.6-39.7-59.4-59.5c-3.4-3.4-7.6-5.2-12.5-5.2C205.3,47.1,190.2,47.1,175.1,47.1z"/>
		<path d="M207.1,145.8c0,15.9,0,31.8,0,47.7c0,0.7,0.3,2.1,0.6,2.1c1.2,0.2,1-1,1.3-1.8c2.6-7,5.1-14.1,7.6-21.1
			c1.8-4.9,3.4-9.8,5.3-14.6c1.8-4.4,5-7.2,9.6-8.8c8.9-3,19.6,5.3,17.1,16.6c-0.5,2.4-1.7,4.7-2.5,7.1c-1.4,4-2.8,7.9-4.2,11.9
			c-1.7,4.7-3.3,9.3-5,14c-1.4,3.9-2.8,7.7-4.2,11.6c-1.4,4-2.8,7.9-4.2,11.9c-1.2,3.5-2.4,6.9-3.6,10.4
			c-3.4,9.2-7.2,18.3-13.7,25.8c-3.9,4.4-8.5,7.8-13.7,10.5c-5.5,2.8-11.3,4.4-17.4,5.6c-7.4,1.4-14.8,1.1-22.1-0.2
			c-5.8-1-11.1-3.3-16-6.4c-8.3-5.1-14.5-12.1-18.3-21c-1.8-4.2-3.1-8.6-4-13.1c-2.6-12-3-24.2-3.3-36.4
			c-0.4-17.5-0.5-35.1-0.7-52.7c-0.1-9.4,0-18.8,0-28.1c0-5.6,5.3-9.6,10.5-9.1c3.3,0.4,6.2,1.3,8.3,4.2c1.3,1.9,1.6,4,1.6,6.2
			c0,15.6,0,31.2,0,46.8c0,0.6,0,1.3,0.1,1.9c0.1,0.8,0.7,1.5,1.5,1.2c0.5-0.2,1.1-0.7,1.3-1.3c0.2-0.6,0.1-1.3,0.1-1.9
			c0-22.9,0-45.7,0-68.6c0-3.1,0.5-6.1,2.9-8.3c3.2-2.9,6.7-3.4,10.9-2.1c3.1,1,5.3,2.8,6.2,6c0.3,1.2,0.4,2.6,0.4,3.8
			c0,23.1,0,46.2,0,69.3c0,0.6,0,1.1,0,1.7c0.1,0.9,0.6,1.4,1.6,1.4c1,0,1.4-0.5,1.4-1.5c0-0.6,0-1.2,0-1.8c0-26.5,0-53,0-79.4
			c0-2.4,0.4-4.6,1.7-6.6c1.8-2.7,4.3-4.1,7.4-4.3c4.3-0.3,8.2,0.9,10.4,5c0.8,1.5,1.2,3.3,1.2,5c0.1,20.8,0.1,41.6,0.1,62.4
			c0,6.4,0,12.8,0,19.2c0,1,0.2,1.9,1.5,1.9c0.9,0,1.5-0.4,1.6-1.4c0-0.6,0-1.3,0-2c0-22.2,0-44.3,0-66.5c0-3.4,1.1-6.3,3.8-8.4
			c4.4-3.4,11.7-2.5,14.9,1.9c1.4,2,1.9,4.3,1.9,6.7C207.1,114.3,207.1,130,207.1,145.8z"/>
	</g>
</g>
</svg>
