<?xml version="1.0" encoding="utf-8"?>
<svg version="1.1" id="Layer_1" xmlns="http://www.w3.org/2000/svg" xmlns:xlink="http://www.w3.org/1999/xlink" x="0px" y="0px"
	 viewBox="0 0 600 200" style="enable-background:new 0 0 600 200;" xml:space="preserve">
<g>
	<g>
		<path d="M50,117.8c-2.5,2.6-2.5,6.7,0,9.2c2.6,2.6,6.7,2.6,9.2,0c2.6-2.6,2.6-6.8,0.1-9.3C56.7,115.2,52.5,115.2,50,117.8z"/>
		<path d="M107.9,55H46.2c-7.8,0-14.1,6.3-14.1,14.1v61.7c0,7.8,6.3,14.1,14.1,14.1h61.7c7.8,0,14.1-6.3,14.1-14.1V69.1
			C122.1,61.3,115.8,55,107.9,55z M109.5,91.9c-3.5,5.1-8.5,7.7-14.7,7.6c-6.5-0.1-12.4,1.7-17.7,5.5c-1,0.7-2,1.6-2.9,2.5
			c-4.1,4.3-6.4,9.4-6.7,15.5c-0.5,9.8-10.8,15.7-19.3,11.1c-8-4.3-9.1-15.5-2.1-21.3c2.3-1.9,4.9-3,8-3.1c5.9-0.2,11-2.5,15.3-6.4
			c5.5-5.7,8.3-12.6,8.2-20.7c-0.1-5.2,1.7-9.6,5.4-13.2c6-5.9,15.9-6.5,22.8-1.4c0.7,0.5,1.3,1,1.9,1.5
			C113.5,75.3,114.4,84.9,109.5,91.9z"/>
		<path d="M87.2,73.8c-4.5,4.4-4.5,11.6-0.1,16.1c4.4,4.4,11.6,4.4,16.1,0c4.4-4.3,4.4-11.6,0.1-16C98.8,69.4,91.7,69.4,87.2,73.8z
			 M95.2,88.1c-3.5,0-6.3-2.8-6.3-6.3c0-3.5,2.8-6.3,6.3-6.3s6.3,2.8,6.3,6.3C101.4,85.3,98.6,88.1,95.2,88.1z"/>
	</g>
	<g>
		<path d="M177,143.9l-35-86.5c-0.5-1.1,0.4-2.4,1.6-2.4h20.2c0.7,0,1.4,0.4,1.6,1.1l23.6,61.7c0.6,1.5,2.7,1.5,3.2,0l24-61.7
			c0.3-0.7,0.9-1.1,1.6-1.1h19.3c1.2,0,2.1,1.2,1.6,2.4l-35.5,86.5c-0.3,0.6-0.9,1.1-1.6,1.1h-23C177.9,145,177.3,144.6,177,143.9z"
			/>
		<path d="M270.1,145c-6.9,0-13.2-1.6-18.8-4.7c-5.6-3.1-10.1-7.3-13.3-12.7c-3.3-5.3-4.9-11.3-4.9-17.9c0-6.6,1.6-12.6,4.7-17.9
			c3.1-5.3,7.4-9.5,12.8-12.7c5.4-3.1,11.4-4.7,18-4.7c6.7,0,12.6,1.6,17.7,4.8c5.1,3.2,9.2,7.6,12.1,13.2c3,5.6,4.4,12,4.4,19.2
			v4.1v1h-1.3h-47.2c0.9,2.1,2.2,4,3.8,5.7c1.6,1.6,3.5,2.9,5.7,3.8c2.2,0.9,4.6,1.4,7.2,1.4c2.8,0,5.4-0.5,7.7-1.4
			c1.4-0.5,2.7-1.2,3.8-2c1.3-0.9,3.1-0.9,4.3,0.2l8.4,7.4c1.7,1.5,1.5,4.2-0.3,5.5c-3.2,2.2-6.4,4-9.7,5.1
			C280.9,144.2,275.8,145,270.1,145z M254.1,102.3h28.4c-0.7-2.2-1.7-4.1-3.2-5.7c-1.4-1.6-3.1-2.8-5-3.7c-1.9-0.9-3.9-1.3-6.2-1.3
			c-2.3,0-4.4,0.4-6.3,1.3c-1.9,0.9-3.5,2.1-4.8,3.7C255.8,98.1,254.8,100,254.1,102.3z"/>
		<path d="M346.3,145c-6.8,0-12.9-1.5-18.3-4.6c-5.4-3.1-9.8-7.3-12.9-12.7c-3.2-5.4-4.8-11.3-4.8-17.9c0-6.7,1.6-12.7,4.8-18
			c3.2-5.3,7.5-9.5,12.9-12.7c5.4-3.1,11.5-4.7,18.3-4.7c5.6,0,10.9,1.1,15.9,3.3c4.5,2,8.4,4.7,11.7,8.1c0.6,0.7,0.6,1.8,0,2.4
			l-10.3,10.7c-0.7,0.7-1.8,0.7-2.5,0c-2-2.1-4-3.6-6.1-4.6c-2.5-1.2-5.2-1.9-8.2-1.9c-3,0-5.7,0.8-8.1,2.3
			c-2.4,1.5-4.3,3.6-5.7,6.2c-1.4,2.6-2.1,5.6-2.1,8.9c0,3.3,0.7,6.2,2.1,8.8c1.4,2.6,3.4,4.7,5.8,6.2c2.5,1.5,5.3,2.2,8.4,2.2
			c2.8,0,5.4-0.6,7.8-1.8c2-1,3.9-2.4,5.7-4.2c0.7-0.7,1.8-0.7,2.5,0l10,10.4c0.6,0.7,0.7,1.7,0,2.4c-3.2,3.4-7,6-11.5,8
			C356.8,143.9,351.7,145,346.3,145z"/>
		<path d="M418.3,145c-8.1,0-14.3-1.8-18.4-5.5c-4.2-3.6-6.2-9-6.2-16.1V93.9c0-0.3-0.2-0.5-0.5-0.5h-12.8c-0.3,0-0.5-0.2-0.5-0.5
			V76.6c0-0.3,0.2-0.5,0.5-0.5h12.8c0.3,0,0.5-0.2,0.5-0.5V64.8c0-0.3,0.2-0.5,0.5-0.5h19.8c0.3,0,0.5,0.2,0.5,0.5v10.8
			c0,0.3,0.2,0.5,0.5,0.5h18c0.3,0,0.5,0.2,0.5,0.5v16.4c0,0.3-0.2,0.5-0.5,0.5h-18c-0.3,0-0.5,0.2-0.5,0.5v25.3c0,3,0.7,5.1,2,6.4
			c1.3,1.2,3.7,1.9,7,1.9c1.7,0,3.3-0.1,4.7-0.3c1-0.2,3-0.7,4.1-0.9c0.3-0.1,0.6,0.2,0.6,0.5c0,2.4,0,10.9,0,15.8
			c-0.1,0.2-0.2,0.3-0.4,0.5c-1.8,0.5-4.1,1-6.8,1.4C422.7,144.8,420.2,145,418.3,145z"/>
		<path d="M474.7,145c-6.9,0-13.2-1.6-18.8-4.7c-5.6-3.1-10-7.3-13.2-12.7c-3.3-5.3-4.9-11.3-4.9-17.9c0-6.6,1.6-12.6,4.9-17.9
			c3.3-5.4,7.7-9.6,13.2-12.7c5.6-3.1,11.8-4.7,18.8-4.7c6.9,0,13.2,1.6,18.8,4.7c5.6,3.1,10,7.4,13.2,12.7
			c3.3,5.4,4.9,11.3,4.9,17.9c0,6.6-1.6,12.6-4.9,17.9c-3.3,5.3-7.7,9.5-13.2,12.7C487.9,143.4,481.6,145,474.7,145z M474.7,127
			c3.2,0,6-0.8,8.5-2.3c2.5-1.5,4.5-3.6,5.9-6.2c1.5-2.6,2.2-5.5,2.2-8.7c0-3.3-0.7-6.2-2.2-8.8c-1.5-2.6-3.5-4.7-6-6.2
			c-2.5-1.5-5.3-2.3-8.4-2.3c-3.1,0-5.9,0.8-8.4,2.3c-2.5,1.5-4.5,3.6-6,6.2c-1.5,2.6-2.2,5.6-2.2,8.8c0,3.2,0.7,6.1,2.2,8.7
			c1.5,2.6,3.4,4.7,6,6.2C468.8,126.2,471.6,127,474.7,127z"/>
		<path d="M521.4,143.3V78.7c0-1,0.8-1.7,1.7-1.7h17.4c1,0,1.7,0.8,1.7,1.7v5.1c2.2-2.7,4.8-4.8,7.8-6.2c3-1.4,6.3-2.1,10-2.1
			c3,0.1,5.4,0.5,6.9,1.2c0.6,0.3,0.9,0.9,0.9,1.5v17.1c-1.4-0.7-2.9-1.2-4.6-1.5c-1.7-0.3-3.5-0.5-5.3-0.5c-3.3,0-6.3,0.8-9.1,2.2
			c-2.6,1.4-4.8,3.4-6.5,5.9c-0.2,0.3-0.3,0.6-0.3,1v40.9c0,1-0.8,1.7-1.7,1.7h-17.4C522.2,145,521.4,144.2,521.4,143.3z"/>
	</g>
</g>
</svg>
